<svg width="35" height="40" viewBox="0 0 35 40" fill="none" xmlns="http://www.w3.org/2000/svg">
<path d="M17.606 6.20901C17.9457 6.21317 18.2728 6.4114 18.4822 6.83977C19.7257 9.37394 20.9817 11.9012 22.2224 14.4368C22.3195 14.6364 22.4637 14.7127 22.6453 14.7376C23.764 14.8929 24.8842 15.0315 26.0029 15.1895C27.1494 15.3503 28.2945 15.5264 29.441 15.6969C30.0135 15.7815 30.5888 15.8508 31.1572 15.9548C31.5509 16.0269 31.8226 16.2861 31.9405 16.6632C32.0639 17.0555 31.9322 17.4201 31.6521 17.6946C30.5874 18.7371 29.5033 19.7602 28.4331 20.7971C27.8994 21.3142 27.3837 21.848 26.8527 22.3679C26.416 22.7962 25.978 23.226 25.5205 23.6321C25.3389 23.793 25.3222 23.976 25.3541 24.17C25.5371 25.2555 25.7298 26.3396 25.9225 27.4237C26.1041 28.4482 26.2996 29.4713 26.4715 30.4972C26.599 31.2624 26.739 32.0276 26.8014 32.7984C26.8541 33.4611 26.1332 33.9699 25.5149 33.7148C24.941 33.4791 24.3948 33.17 23.8403 32.8844C23.0944 32.5004 22.3528 32.1081 21.6083 31.7171C20.3121 31.0378 19.0145 30.3613 17.7239 29.6737C17.5464 29.5794 17.4147 29.5836 17.2414 29.6751C15.661 30.5152 14.0779 31.3497 12.4933 32.1829C11.5603 32.6737 10.626 33.1616 9.68743 33.6441C9.31451 33.8368 8.9305 33.8645 8.58393 33.5872C8.2221 33.2961 8.10288 32.937 8.20547 32.456C8.37598 31.6589 8.47163 30.8465 8.60749 30.0424C8.74474 29.2398 8.89446 28.4385 9.03448 27.6372C9.14954 26.9759 9.26322 26.3147 9.37135 25.652C9.46146 25.0905 9.54603 24.5291 9.62227 23.9649C9.63198 23.8941 9.59871 23.7929 9.5488 23.743C8.26092 22.4704 6.96749 21.2019 5.67545 19.9335C4.87416 19.1474 4.06733 18.3683 3.27159 17.5781C3.04839 17.3577 2.95967 17.0846 3.04423 16.7602C3.15375 16.3443 3.39081 16.0324 3.81641 15.9589C4.71335 15.8064 5.61722 15.7011 6.51694 15.5666C7.59826 15.4044 8.6782 15.2228 9.7609 15.0634C10.5802 14.9441 11.4023 14.8457 12.2244 14.739C12.5003 14.7029 12.6971 14.6184 12.8399 14.3231C14.0668 11.8028 15.3186 9.29354 16.5594 6.78016C16.7507 6.39199 17.0543 6.20624 17.606 6.20901Z" fill="#F8FAFF"/>
</svg>
