<svg width="35" height="40" viewBox="0 0 35 40" fill="none" xmlns="http://www.w3.org/2000/svg">
    <path d="M22.8146 14.8662H23.2904C25.0699 14.8662 26.8493 14.8571 28.6288 14.8717C29.2031 14.8771 29.6644 15.0868 29.7409 15.6866C29.7974 16.1224 29.5622 16.3959 29.3034 16.6566C28.7655 17.1999 28.1967 17.7122 27.6552 18.2519C21.1518 24.7498 14.6503 31.2513 8.14877 37.751C7.53982 38.36 6.84882 38.2415 6.56258 37.4466C6.49148 37.2442 6.54253 36.9488 6.63733 36.7428C7.39761 35.0709 8.18159 33.41 8.95827 31.7472C10.0577 29.3971 11.1607 27.0488 12.2546 24.6969C12.8508 23.4207 13.4324 22.1371 14.0322 20.8317H6.50424C6.28728 20.8317 6.07032 20.8299 5.85154 20.8281C5.48507 20.8262 5.21888 20.6767 5.03109 20.3467C4.83419 20.004 4.86154 19.705 5.06938 19.3804C6.18883 17.652 7.29915 15.92 8.41131 14.1861C10.3293 11.1961 12.2473 8.20244 14.1653 5.21057C14.7579 4.28803 15.3595 3.36909 15.9375 2.43744C16.1873 2.03268 16.5136 1.85952 16.9913 1.86134C20.9732 1.87046 24.955 1.86861 28.9369 1.86496C29.369 1.86496 29.8029 1.90873 30.0053 2.33901C30.1803 2.71459 30.111 3.08103 29.8704 3.46755C28.1073 6.28804 26.3771 9.12678 24.6305 11.9582C24.0452 12.9081 23.4491 13.8525 22.8146 14.8662Z"
          fill="white"/>
</svg>
