<svg width="35" height="40" viewBox="0 0 35 40" fill="none" xmlns="http://www.w3.org/2000/svg">
<path fill-rule="evenodd" clip-rule="evenodd" d="M3.01318 23.6787V21.5283C3.0325 21.5005 3.06262 21.4755 3.06716 21.4454C3.14725 20.9382 3.20122 20.4241 3.3063 19.922C3.49658 18.9899 3.82713 18.1016 4.25824 17.2541C4.64277 16.4998 5.09719 15.7904 5.63451 15.131C6.24056 14.388 6.91306 13.7286 7.67019 13.1475C8.45403 12.546 9.30147 12.07 10.2057 11.6764C11.34 11.1828 12.5226 10.8682 13.75 10.7898C14.5611 10.7387 15.3813 10.8 16.1969 10.8364C17.1943 10.8801 18.1395 11.1715 19.0801 11.4816C20.111 11.8224 21.0181 11.5429 21.8048 10.8483C22.2529 10.4535 22.7266 10.4274 23.1446 10.8466C24.3124 12.0115 25.4802 13.1793 26.6469 14.346C27.0661 14.7669 27.0559 15.2008 26.6554 15.6331C26.1721 16.1545 25.9142 16.7776 25.8733 17.4944C25.8398 18.0959 26.1357 18.6156 26.2595 19.1779C26.4328 19.9731 26.6565 20.7706 26.7048 21.576C26.7662 22.6245 26.769 23.6804 26.5668 24.7318C26.376 25.7252 26.0891 26.6789 25.6711 27.595C24.877 29.328 23.7138 30.7696 22.2199 31.9487C21.26 32.7064 20.2189 33.3238 19.0653 33.718C18.3258 33.9719 17.551 34.1287 16.7894 34.3156C16.4838 34.3911 16.1691 34.432 15.859 34.4871H13.8216C13.7938 34.4695 13.7659 34.436 13.7386 34.4348C12.8883 34.4042 12.071 34.1929 11.269 33.9395C10.1239 33.5783 9.06519 33.041 8.07688 32.3537C7.18967 31.738 6.40357 31.0183 5.71743 30.1942C4.92679 29.2417 4.30654 28.1789 3.84476 27.0282C3.49374 26.1529 3.24322 25.2532 3.12849 24.3154C3.1035 24.1013 3.05238 23.89 3.01318 23.6787ZM6.38312 22.6086C6.41209 22.9522 6.43708 23.2959 6.46775 23.6395C6.53875 24.458 6.78071 25.2328 7.10844 25.9797C7.71847 27.365 8.64601 28.5033 9.85187 29.4149C11.1219 30.3748 12.5618 30.9195 14.1345 31.0825C14.9979 31.1729 15.8749 31.1087 16.7178 30.9093C18.5121 30.4856 20.0439 29.5768 21.2629 28.192C21.6661 27.7348 22.0058 27.2043 22.3 26.6669C22.5227 26.2597 22.3494 25.703 21.803 25.5446C20.9777 25.3026 20.1297 25.1135 19.3334 24.796C18.2701 24.3751 17.229 23.886 16.21 23.3646C15.2063 22.8506 14.2527 22.2434 13.261 21.7044C11.5542 20.7751 9.75586 20.0765 7.84967 19.6698C7.27883 19.5477 6.85169 19.7658 6.69777 20.3383C6.49499 21.0796 6.36552 21.8327 6.38312 22.6086ZM11.5019 16.376C11.407 17.5393 12.5924 18.7144 13.7659 18.6491C15.0581 18.5764 16.0294 17.6472 16.0072 16.3732C15.9828 14.981 15.0172 14.1319 13.6642 14.1262C12.4499 14.1216 11.4479 15.2065 11.5019 16.376ZM31.9872 11.4555C31.8912 11.652 31.8066 11.8542 31.6975 12.0433C31.2159 12.8783 30.4729 13.2929 29.5249 13.252C28.9933 13.2287 28.5082 12.9856 28.118 12.5954C27.0667 11.5412 26.0079 10.4956 24.9639 9.43568C24.3028 8.76715 24.0466 7.96344 24.3596 7.05919C24.6379 6.25093 25.2144 5.72667 26.0766 5.55741C26.0869 5.55627 26.0942 5.52844 26.1027 5.51367H26.8383C27.2359 5.71361 27.7074 5.83401 28.0175 6.1271C29.1694 7.20913 30.2673 8.34739 31.3828 9.46634C31.4413 9.52428 31.4982 9.5896 31.5345 9.66287C31.6901 9.97413 31.8373 10.2916 31.9872 10.6063V11.4555Z" fill="white"/>
</svg>
