<svg width="35" height="40" viewBox="0 0 35 40" fill="none" xmlns="http://www.w3.org/2000/svg">
    <path d="M23.1214 4.07208C24.3978 3.47769 26.1245 3.66085 27.0872 4.77362C27.6835 5.46349 28.3695 6.08322 28.9034 6.81597C29.3906 7.48051 29.4277 8.30486 29.1958 9.09413C29.0983 9.42932 29.2114 9.49359 29.4744 9.60857C30.7938 10.1893 31.8539 11.0507 32.4698 12.4012C32.9492 13.4477 32.5925 14.3461 32.0469 15.2367C32.6588 15.7375 33.2863 16.2209 33.8807 16.7431C34.9798 17.7078 35.5274 19.793 34.2276 20.9272C30.9653 23.7744 28.0479 26.9705 24.9259 29.958C23.8229 31.0142 22.4997 31.6943 20.9173 31.8054C19.7597 31.8873 18.567 31.899 17.5302 32.546C17.119 32.8032 16.6981 33.0683 16.3551 33.4054C14.4648 35.2665 12.5959 37.1491 10.7211 39.0238C10.2339 39.511 10.0371 39.511 9.54212 39.016C6.51953 35.9934 3.49499 32.9708 0.474351 29.9463C0.355474 29.8293 0.275576 29.6754 0.158648 29.5546C-0.0693619 29.3188 -0.00310189 29.1394 0.211266 28.929C1.10187 28.0559 1.97493 27.1634 2.86553 26.2884C3.61777 25.5478 4.25502 24.7254 4.36415 23.6458C4.4421 22.8604 4.40703 22.0634 4.40118 21.2722C4.39534 20.67 4.31934 20.0659 4.33882 19.4656C4.36026 18.8381 4.46549 18.2145 4.52006 17.587C4.6974 15.5388 5.21384 13.5997 6.4104 11.8907C6.60528 11.6159 6.83329 11.3586 7.07299 11.1208C10.269 7.91701 13.4709 4.71909 16.6689 1.51916C17.2944 0.891642 18.0525 0.566182 18.9256 0.618799C19.594 0.659724 20.2332 0.848766 20.7497 1.33402C21.3616 1.90696 22.0222 2.43116 22.5971 3.03529C22.8524 3.30423 22.9518 3.72324 23.1214 4.07208ZM25.3118 20.3698C25.8438 20.2003 26.3505 20.0951 26.8104 19.8866C28.7514 19.0077 30.1721 17.4934 31.5499 15.9305C31.6103 15.8623 31.6415 15.7707 31.7039 15.7064C31.9085 15.494 31.9631 15.2543 31.7292 15.0575C31.4992 14.8645 31.2362 14.845 30.9945 15.0984C30.1974 15.9364 29.4218 16.7977 28.5799 17.5909C27.8316 18.2963 26.9878 18.8791 25.9783 19.1909C24.6999 19.5865 23.6651 19.224 23.1759 18.043C22.9265 17.4427 22.8388 16.7529 22.7979 16.0961C22.7706 15.646 22.8816 15.2173 23.3903 14.8996C25.1754 13.7829 26.7091 12.3564 28.1473 10.8247C28.3363 10.6239 28.5078 10.4056 28.6676 10.1815C28.8391 9.93793 28.8333 9.68849 28.5741 9.51115C28.3285 9.33966 28.1161 9.38449 27.9096 9.63004C27.5315 10.0822 27.1456 10.5284 26.7227 10.9357C26.0329 11.5983 25.3235 12.2414 24.5985 12.8689C24.1932 13.2197 23.743 13.5179 23.2344 13.8979C23.3533 12.4032 22.7063 11.4736 21.5292 10.8207C20.8802 10.4622 20.28 10.014 19.748 9.66513C20.5002 8.94797 21.2758 8.30095 21.9404 7.55456C22.5913 6.82181 23.0493 5.95653 23.059 4.92367C23.0629 4.65668 23.0824 4.44038 22.6926 4.43843C22.3223 4.43453 22.1918 4.58653 22.1119 4.92367C22.0066 5.37384 21.8878 5.83378 21.6851 6.24497C21.1433 7.34799 20.2274 8.09439 19.2043 8.7414C18.8691 8.95187 18.6333 8.98109 18.3039 8.74919C17.4796 8.1665 16.6007 7.62861 15.5503 7.74749C14.8409 7.82544 14.1413 8.06123 13.4592 8.29119C12.0483 8.76864 10.6549 9.29677 9.24785 9.78591C8.9146 9.90089 8.83275 10.1367 8.94773 10.39C9.04907 10.6141 9.23421 10.8071 9.57915 10.6804C11.2746 10.0568 12.9818 9.46634 14.6772 8.84077C15.6165 8.49194 16.4623 8.6868 17.2691 9.19934C18.6079 10.049 19.9351 10.9201 21.2856 11.7542C22.1177 12.2687 22.4159 13.0014 22.3068 13.9369C22.2191 14.693 21.7436 15.1588 21.0868 15.4453C20.1416 15.8584 19.1419 15.7941 18.1967 15.5349C17.0957 15.2348 16.0355 14.7749 14.9617 14.3754C14.7025 14.2799 14.4706 14.2058 14.2796 14.5001C14.0965 14.7807 14.268 14.9483 14.4239 15.1646C15.102 16.1 15.8328 17.0102 16.4116 18.006C17.4581 19.8008 18.074 21.7574 18.2844 23.8348C18.3117 24.1018 18.4053 24.3298 18.7697 24.3103C19.1127 24.2908 19.2393 24.1252 19.216 23.8095C19.1906 23.4743 19.1809 23.1333 19.1166 22.8039C18.7463 20.9448 18.1831 19.1518 17.2321 17.4973C16.9631 17.0316 16.6806 16.5716 16.3473 16.0104C18.2084 16.5911 19.9877 16.9946 21.7981 16.217C21.8507 16.5152 21.8975 16.7529 21.9326 16.9945C22.1275 18.3587 22.6361 19.5046 23.9964 20.1009C24.1562 20.1691 24.3082 20.3738 24.3588 20.5472C24.507 21.0519 24.5518 21.5917 24.7272 22.0828C25.4891 24.207 27.2626 24.9008 29.2425 24.2947C29.5251 24.209 29.6908 23.9966 29.5933 23.7023C29.4939 23.4081 29.2776 23.3496 28.9463 23.4061C28.426 23.4938 27.8706 23.5757 27.3619 23.4841C26.0329 23.2502 25.3021 21.621 25.3118 20.3698Z"
          fill="white"/>
</svg>
