<svg width="35" height="40" viewBox="0 0 35 40" fill="none" xmlns="http://www.w3.org/2000/svg">
    <path d="M17.4914 38.1374H17.4203C15.65 37.1273 13.8978 36.0844 12.3098 34.7954C11.4328 34.0843 10.5558 33.3678 9.73172 32.5947C9.04801 31.9529 8.4117 31.2528 7.81003 30.5326C7.07526 29.652 6.36602 28.7459 5.70601 27.8106C4.86185 26.6145 4.18542 25.3218 3.62204 23.9672C2.81982 22.0345 2.31661 20.0435 2.31478 17.9413C2.31296 14.211 2.30931 10.4825 2.30566 6.75393V6.34553C3.78978 5.89884 5.22832 5.46671 6.66686 5.03096C10.0016 4.01906 13.3363 3.0108 16.6673 1.98796C17.1924 1.82752 17.692 1.81479 18.2207 1.97705C20.9793 2.82668 23.7415 3.65806 26.5019 4.49675C28.5512 5.11848 30.5987 5.74203 32.659 6.3674C32.6644 6.40933 32.6772 6.45491 32.6754 6.50049C32.6061 10.6721 32.8285 14.8455 32.5496 19.0116C32.5076 19.6114 32.4675 20.2204 32.329 20.802C31.9278 22.4812 31.3499 24.093 30.544 25.6336C29.4081 27.7978 27.955 29.7249 26.2886 31.4916C25.5793 32.2428 24.8154 32.9484 24.0241 33.6121C23.0323 34.4435 22.0167 35.2585 20.9519 35.9914C19.8361 36.7608 18.6474 37.4263 17.4914 38.1374ZM17.475 4.18683C17.4294 4.18501 17.4039 4.17585 17.382 4.18132C14.9899 4.9088 12.6015 5.63995 10.2076 6.36378C8.45363 6.89617 6.6942 7.4158 4.93842 7.94454C4.77069 7.99559 4.60112 8.01017 4.5993 8.28912C4.59748 11.5855 4.56466 14.8838 4.57195 18.182C4.57195 18.8147 4.62483 19.4692 4.79257 20.0745C5.12622 21.2797 5.47081 22.494 5.96673 23.6372C6.93122 25.8615 8.34424 27.8123 9.98515 29.5882C10.6324 30.2883 11.3234 30.9575 12.0491 31.5755C13.0427 32.4234 14.0729 33.2347 15.123 34.0132C15.8615 34.5601 16.6582 35.0287 17.475 35.5611V4.18683Z"
          fill="white"/>
</svg>
