<svg width="35" height="40" viewBox="0 0 35 40" fill="none" xmlns="http://www.w3.org/2000/svg">
    <path d="M3.01318 16.9568V15.0897C3.0509 14.8597 3.07982 14.6271 3.13011 14.4008C3.36899 13.3195 3.71977 12.2822 4.30567 11.3305C5.1229 9.99902 6.19787 8.94163 7.59848 8.25013C8.87965 7.61897 10.2363 7.38514 11.6696 7.55361C12.5647 7.65797 13.4071 7.89812 14.2005 8.30296C15.327 8.88006 16.2825 9.66585 17.0092 10.7144C17.1639 10.937 17.3311 11.1507 17.4996 11.3795C18.0352 10.5032 18.6764 9.77522 19.4458 9.15161C20.6377 8.18476 21.9981 7.63282 23.5207 7.51463C24.4574 7.44045 25.3877 7.55108 26.2917 7.83271C27.9312 8.34568 29.2463 9.32385 30.2584 10.6893C31.004 11.6963 31.5119 12.8279 31.7634 14.065C31.8326 14.407 31.9118 14.7478 31.9872 15.0897V16.8437C31.9495 16.9216 31.8954 16.9958 31.8766 17.0775C31.7508 17.6207 31.6729 18.1789 31.5006 18.7069C31.2089 19.6021 30.7815 20.4382 30.2987 21.2517C29.5368 22.5328 28.6202 23.6933 27.5917 24.757C26.6287 25.7528 25.5927 26.6781 24.573 27.6173C24.1091 28.0435 23.6213 28.4458 23.1221 28.8293C22.3652 29.4089 21.6021 29.9847 20.8163 30.5241C19.8582 31.1791 18.8863 31.8153 17.8906 32.4113C17.6831 32.5345 17.3022 32.5383 17.0809 32.4314C16.5478 32.1762 16.0537 31.8367 15.5596 31.5073C14.0332 30.4889 12.5182 29.4529 11.1214 28.2585C10.2878 27.5469 9.43537 26.8529 8.63825 26.1023C7.98321 25.4874 7.36211 24.8286 6.78754 24.1371C6.08597 23.2948 5.40579 22.426 4.79601 21.517C4.06553 20.4294 3.52364 19.2413 3.23572 17.9513C3.1628 17.6206 3.08736 17.2887 3.01318 16.9568Z"
          fill="white"/>
</svg>
