<svg width="153" height="146" viewBox="0 0 153 146" fill="none" xmlns="http://www.w3.org/2000/svg">
    <path fill-rule="evenodd" clip-rule="evenodd"
          d="M72.678 1.73935C71.781 2.73135 66.559 12.8313 61.074 24.1843C51.423 44.1603 50.995 44.8443 47.801 45.3593C45.985 45.6523 35.051 47.2893 23.503 48.9973C11.954 50.7043 1.942 52.5693 1.253 53.1413C0.564 53.7133 0 55.3603 0 56.8013C0 58.8823 3.609 62.9143 17.569 76.4283L35.137 93.4363L31.032 117.436C26.556 143.598 26.605 145.936 31.624 145.936C33.094 145.936 43.607 140.998 55.044 134.936C66.459 128.886 76.027 123.936 76.308 123.936C76.588 123.936 86.229 128.886 97.732 134.936C109.235 140.986 119.836 145.936 121.288 145.936C126.118 145.936 126.289 143.664 122.93 124.242C121.236 114.449 119.351 103.527 118.741 99.9714L117.633 93.5053L135.317 76.4063C149.178 63.0014 153 58.7523 153 56.7433C153 55.3343 152.416 53.6963 151.701 53.1033C150.987 52.5103 140.524 50.6273 128.451 48.9183C116.378 47.2093 105.451 45.5973 104.17 45.3343C102.266 44.9453 99.968 41.0373 91.62 23.9903C85.999 12.5133 80.805 2.40635 80.078 1.53035C78.315 -0.593654 74.697 -0.490655 72.678 1.73935Z"
          fill="#5785FA"/>
</svg>
