<svg width="139" height="85" viewBox="0 0 139 85" fill="none" xmlns="http://www.w3.org/2000/svg">
<path fill-rule="evenodd" clip-rule="evenodd" d="M139.629 0.433838H27.7637C12.6809 0.433838 0.45459 12.6617 0.45459 27.7466V85.2467H139.629V0.433838Z" fill="#FFA600"/>
<path fill-rule="evenodd" clip-rule="evenodd" d="M124.757 33.5912H112.537V54.2403H103.707V33.5912H100.71L100.73 33.6895C101.111 35.228 101.192 42.337 100.874 45.5214C100.652 47.7247 100.1 49.5664 99.3046 50.7527C98.9735 51.2433 98.3557 51.8901 97.8682 52.2602C97.399 52.6126 96.5805 53.0274 95.9366 53.237C95.1259 53.5 93.7313 53.7586 92.3784 53.9014C90.7778 54.0709 90.5093 54.0753 77.6083 54.0933L64.9506 54.111V26.5003H124.757V33.5912ZM80.5722 32.6593C77.9029 32.7618 76.2789 33.0295 75.2179 33.5422C73.6747 34.2961 72.8849 35.5536 72.6164 37.6943C72.5955 37.9039 72.559 38.8361 72.546 39.7727C72.4886 43.626 72.8171 45.1557 73.9588 46.293C74.7982 47.1358 76.0834 47.6533 77.9055 47.8806C79.0395 48.0278 79.5426 48.05 81.9304 48.0724C85.0012 48.1037 86.5496 48.0367 88.1189 47.8138C89.7742 47.5818 90.9081 47.1402 91.7892 46.3999C92.4592 45.8382 92.9675 44.7988 93.1578 43.6036C93.1943 43.3852 93.2256 43.1667 93.2256 43.1219C93.2256 43.0507 93.0613 43.0463 90.3763 43.0463H87.5219L87.4515 43.3004C87.2847 43.8713 87.0762 44.0942 86.5366 44.2725C86.0282 44.4422 85.4756 44.509 84.1409 44.5715C81.5576 44.6828 79.6494 44.4555 78.9717 43.9472C78.4764 43.5723 78.3122 43.113 78.2757 42.0205L78.2626 41.5521L85.7728 41.5388C91.7188 41.5299 93.2959 41.5164 93.3246 41.4718C93.3742 41.3915 93.3689 39.2375 93.3142 38.5595C93.1552 36.5127 92.7537 35.2862 91.9717 34.4656C91.028 33.4664 89.6126 32.9356 87.3838 32.744C85.9396 32.6236 82.5951 32.579 80.5722 32.6593ZM84.1201 36.0442C85.4834 36.1112 86.2863 36.2627 86.8181 36.5481C87.2639 36.7845 87.4828 37.1503 87.535 37.7613C87.5532 37.9352 87.5741 38.1805 87.5897 38.3053L87.6105 38.5418H78.2574L78.2913 38.225C78.3799 37.3867 78.7319 36.7845 79.3027 36.4947C79.7537 36.2627 80.6948 36.1023 81.8991 36.0486C82.9913 35.9952 83.179 35.9952 84.1201 36.0442ZM45.6484 25.5637C54.7286 25.6797 58.0288 26.0318 60.3525 27.129C61.2756 27.5662 62.141 28.2484 62.5735 28.8863C63.0729 29.6266 63.3764 30.5588 63.5771 31.9636C63.6707 32.6147 63.6527 35.393 63.5547 36.0575C63.3227 37.5963 62.9168 38.5061 62.141 39.2242C61.7484 39.5853 61.1864 39.8843 60.3658 40.1606L59.7772 40.3613L60.3301 40.5487C61.3068 40.8743 61.8199 41.1598 62.306 41.6504C62.9481 42.306 63.3318 43.2157 63.5502 44.6072C63.6483 45.2404 63.6884 47.5641 63.617 48.3401C63.4744 49.8161 63.1399 50.9714 62.618 51.7563C61.6637 53.188 59.7326 54.1288 56.8427 54.5748C54.3853 54.9541 35.0652 55.0789 32.4607 54.4543C29.6243 53.7766 28.0634 52.3137 27.5592 49.8562C27.3765 48.9733 27.2649 47.4525 27.2516 45.6776L27.2428 44.4065L31.6446 44.393L36.0464 44.3841L36.0688 44.5269C36.0821 44.6072 36.0998 45.004 36.1134 45.4099C36.1801 47.5148 36.5815 48.0456 38.2272 48.1751C40.8183 48.3756 48.3287 48.3756 51.7493 48.1704C53.3105 48.0813 54.0107 47.7958 54.3718 47.1136C54.586 46.7122 54.6616 46.3553 54.6616 45.7667C54.6663 44.3976 54.171 43.7019 53.0561 43.5145C52.0439 43.345 49.4749 43.2692 44.6672 43.2692H41.4028L41.4116 40.3569L41.4249 37.449L46.2193 37.4224C50.9824 37.3956 51.9456 37.3687 52.9313 37.2217C53.676 37.1146 54.1132 36.856 54.3718 36.3654C54.5905 35.9551 54.6616 35.6118 54.6616 34.9739C54.6616 34.1533 54.5235 33.7028 54.1445 33.2925C53.9304 33.0605 53.694 32.9135 53.3283 32.7886C52.7397 32.5835 52.0395 32.5345 48.427 32.4273C44.5601 32.3113 38.3745 32.4317 37.545 32.6369C37.0007 32.7706 36.6172 33.0428 36.4165 33.4442C36.2338 33.8055 36.0954 34.7643 36.0954 35.6965C36.0954 35.9551 36.0821 36.2004 36.0688 36.2405C36.0419 36.3028 35.6092 36.3119 31.6221 36.3119H27.207L27.2336 34.9963C27.2962 32.249 27.4612 30.8841 27.8491 29.845C28.1437 29.0601 28.5094 28.5117 29.1426 27.9051C30.155 26.9372 31.435 26.4111 33.8165 25.9828C35.2257 25.7331 36.7911 25.6127 39.3512 25.5681C41.9914 25.5191 42.152 25.5191 45.6484 25.5637Z" fill="white"/>
<path fill-rule="evenodd" clip-rule="evenodd" d="M33.0682 63.2327L35.1202 67.4796L35.4547 67.4929L35.7893 67.5018L37.8235 63.2551L39.8531 59.0038L41.7357 58.9905C42.7705 58.9861 43.6182 58.9994 43.6182 59.0174C43.6182 59.044 38.8628 68.8847 38.2159 70.1918L38.1135 70.4014H32.8004L30.258 65.218C28.857 62.3673 27.5992 59.798 27.4608 59.5081L27.2065 58.9816H31.0162L33.0682 63.2327ZM47.8559 70.4014H44.1981V58.9816H47.8559V70.4014ZM77.2523 61.9256H72.2566V70.4014H68.599V61.9256H63.5581V58.9816H77.2523V61.9256ZM106.619 59.1065C107.073 59.2314 107.459 59.4411 107.774 59.731C108.371 60.2887 108.554 61.1095 108.51 63.0319C108.491 63.7013 108.463 64.1474 108.416 64.3479C108.225 65.2088 107.766 65.6641 106.87 65.8915L106.562 65.9673L106.815 66.0163C107.735 66.1903 108.228 66.6632 108.345 67.4796C108.369 67.6491 108.39 68.3807 108.39 69.0944V70.4014H105V69.8526C105 68.6125 104.88 67.988 104.588 67.7471C104.335 67.5331 104.317 67.5331 101.021 67.5153L97.908 67.4973V70.4014H94.4271V58.9772L100.351 58.9905C106.257 59.0082 106.27 59.0082 106.619 59.1065ZM97.908 64.6558L101.086 64.6334C103.394 64.6201 104.312 64.5979 104.442 64.5578C104.541 64.5265 104.692 64.4282 104.786 64.3302C105.005 64.1025 105.057 63.8217 105.034 63.0677C105.013 62.3942 104.943 62.1845 104.661 62.0106C104.424 61.8677 103.835 61.8409 100.62 61.8409L97.908 61.8365V64.6558ZM114.879 61.2566C115.888 62.5058 116.718 63.5271 116.731 63.5271C116.746 63.5271 117.5 62.5637 118.405 61.3859C119.315 60.2084 120.105 59.1824 120.167 59.111L120.277 58.9772L124.756 59.0038L118.566 66.3644L118.561 68.3807V70.4014H114.992V66.3644L113.693 64.8923C112.976 64.0804 111.513 62.421 110.436 61.1987L108.478 58.9816H110.768L113.052 58.9861L114.879 61.2566ZM59.0437 58.8479C60.1054 58.9013 60.6764 58.9861 61.1984 59.16C61.6847 59.3206 61.9968 59.5125 62.2823 59.8337C62.6972 60.2931 62.8666 60.8462 62.9425 61.9926C62.9694 62.4075 62.9782 62.8267 62.9605 62.9162L62.9292 63.0856H59.5034L59.481 62.9383C59.4677 62.8625 59.4497 62.6841 59.4364 62.5459C59.3829 61.8633 59.1464 61.783 57.023 61.6983C55.591 61.6448 53.6506 61.6983 53.2089 61.8054C52.6157 61.9525 52.3881 62.2158 52.2455 62.925C52.1563 63.362 52.1161 65.2714 52.1785 65.9895C52.241 66.7167 52.3258 66.9753 52.5844 67.2343C52.9948 67.6447 53.4321 67.6937 56.3985 67.6668C58.7227 67.6491 58.9011 67.6311 59.2445 67.4215C59.4497 67.2921 59.5746 66.9978 59.6327 66.4938C59.6549 66.275 59.6773 66.0698 59.6773 66.0388C59.6773 65.9986 60.0564 65.9851 61.4214 65.9851H63.1657L63.1433 67.0202C63.1256 67.89 63.1076 68.1218 63.0273 68.4342C62.7373 69.5718 62.1084 70.0935 60.7033 70.3569C59.3336 70.6155 53.8871 70.6557 51.8797 70.4192C50.024 70.2051 49.2032 69.6521 48.8864 68.3896C48.708 67.6937 48.6856 67.2653 48.6856 64.8031C48.6812 62.3272 48.7169 61.6537 48.8819 61.0112C49.1273 60.0434 49.7742 59.4278 50.8224 59.1644C51.438 59.0082 52.8478 58.8745 54.3465 58.8343C55.4661 58.7986 58.2855 58.8077 59.0437 58.8479ZM89.6322 58.8925C91.0271 58.9816 91.7102 59.1334 92.2291 59.4679C92.555 59.682 92.9097 60.0611 93.0583 60.3466C93.4546 61.1273 93.6058 62.6038 93.5667 65.2268C93.5302 67.3857 93.4103 68.3004 93.0713 68.9963C92.7897 69.5673 92.2552 69.9955 91.5538 70.2184C90.7116 70.4862 89.5826 70.5532 85.8176 70.5532C82.8373 70.5532 81.6249 70.513 80.7332 70.379C79.4165 70.1829 78.6629 69.5984 78.3292 68.5189C78.0919 67.7383 77.9902 66.293 78.0241 64.1383C78.0476 62.4966 78.1128 61.6983 78.2796 61.0425C78.5821 59.8515 79.3539 59.2134 80.741 59.0082C81.1686 58.9415 82.5166 58.8567 83.5205 58.8299C84.5739 58.803 88.8865 58.8479 89.6322 58.8925ZM83.5778 61.8365C82.5479 61.8857 82.2637 61.9569 81.9691 62.2336C81.6171 62.5592 81.5362 62.9563 81.505 64.5353C81.4632 66.5874 81.5858 67.0246 82.2898 67.3367C82.66 67.5062 83.1685 67.5464 85.1475 67.5776C87.0039 67.6045 88.5475 67.5508 88.9855 67.4439C89.6765 67.2744 89.9659 66.9219 90.0598 66.1324C90.1328 65.5702 90.0859 63.38 89.9972 62.9918C89.8329 62.2781 89.5018 61.9838 88.7535 61.881C88.3259 61.8187 84.5295 61.7874 83.5778 61.8365Z" fill="white"/>
</svg>
