<svg width="101" height="147" viewBox="0 0 101 147" fill="none" xmlns="http://www.w3.org/2000/svg">
    <path fill-rule="evenodd" clip-rule="evenodd"
          d="M45.826 1.30569C43.617 3.07969 0 71.5617 0 73.2547C0 76.6127 2.238 77.0557 19.2 77.0557C28.44 77.0557 36 77.4527 36 77.9387C36 78.4247 29.209 93.3847 20.91 111.184C5.786 143.615 4.986 146.031 9.107 146.824C9.873 146.971 30.748 126.834 55.495 102.075C94.308 63.2427 100.339 56.8167 99.388 55.3067C98.445 53.8077 96.381 53.5157 85.069 53.2757C77.8 53.1227 71.999 52.6447 72.177 52.2147C72.354 51.7847 78.912 41.0487 86.75 28.3577C94.588 15.6677 101 4.57369 101 3.70469C101 2.83669 100.13 1.66069 99.066 1.09069C96.112 -0.49031 47.819 -0.29531 45.826 1.30569Z"
          fill="#FFF"/>
</svg>
