<svg width="147" height="147" viewBox="0 0 147 147" fill="none" xmlns="http://www.w3.org/2000/svg">
    <path fill-rule="evenodd" clip-rule="evenodd"
          d="M111.043 3.44702C108.15 6.34002 107.643 7.54202 107.643 11.501C107.643 16.035 107.896 16.416 117.393 26.204C122.756 31.731 128.358 36.882 129.843 37.65C135.294 40.47 141.178 38.818 144.697 33.48C147.147 29.763 147.146 26.953 144.692 22.143C142.534 17.912 126.476 2.33702 122.828 0.936019C118.155 -0.858981 114.589 -0.0989816 111.043 3.44702ZM92.355 28.321L86.567 31.402L77.796 29.141C44.171 20.472 13.408 36.347 2.40501 68.047C-0.636991 76.809 -0.829991 95.688 2.03601 104.047C7.27101 119.316 18.565 133.17 31.15 139.76C53.376 151.398 79.687 148.571 98.526 132.52C116.692 117.043 123.713 94.282 117.643 70.547C115.07 60.488 115.129 58.399 118.117 53.547C119.472 51.347 120.595 48.62 120.612 47.487C120.643 45.416 100.877 24.945 99.038 25.143C98.546 25.196 95.538 26.626 92.355 28.321ZM61.877 46.965C64.75 49.532 65.143 50.492 65.143 54.942C65.143 59.054 64.657 60.487 62.55 62.594C55.105 70.039 42.643 65.168 42.643 54.812C42.643 51.636 43.32 50.17 46.043 47.447C48.921 44.569 50.147 44.047 54.027 44.047C57.679 44.047 59.275 44.64 61.877 46.965ZM35.214 75.015C40.014 76.648 49.162 80.875 55.542 84.408C72.77 93.948 75.183 95.084 86.643 99.047C98.859 103.272 99.578 104.374 94.723 111.431C85.698 124.548 68.441 132.036 53.598 129.276C35.079 125.832 21.371 112.6 17.642 94.568C16.372 88.425 16.802 79.389 18.588 74.692C19.95 71.11 23.962 71.188 35.214 75.015Z"
          fill="#5785FA"/>
</svg>
