<svg width="123" height="147" viewBox="0 0 123 147" fill="none" xmlns="http://www.w3.org/2000/svg">
<path fill-rule="evenodd" clip-rule="evenodd" d="M28.5 8.76818L0 17.4792V45.4352C0 71.9612 0.119999 73.7722 2.342 80.8482C9.743 104.417 27.254 125.377 52.898 141.36L60.517 146.109L67.593 141.905C77.171 136.215 92.894 123.388 99 116.283C107.079 106.881 114.144 95.3512 117.517 86.0612C121.329 75.5622 122.731 60.4162 122.288 34.5342L122 17.6772L93 8.81018C77.05 3.93318 62.425 -0.0308194 60.5 0.000180593C58.575 0.0311806 44.175 3.97718 28.5 8.76818ZM61.5 72.5572C61.5 131.985 61.39 136.063 59.798 135.452C55.903 133.957 41.623 122.842 34.026 115.391C21.901 103.498 14.734 92.1392 10.614 78.2832C8.723 71.9242 8.5 68.6892 8.5 47.5762V23.9762L15.313 21.9472C19.06 20.8312 30.647 17.2882 41.063 14.0742C51.478 10.8602 60.338 8.40618 60.75 8.62018C61.162 8.83418 61.5 37.6062 61.5 72.5572Z" fill="#FFF"/>
</svg>
