<svg width="169" height="147" viewBox="0 0 169 147" fill="none" xmlns="http://www.w3.org/2000/svg">
    <path fill-rule="evenodd" clip-rule="evenodd"
          d="M38.1325 0.560897C21.7775 3.0289 6.9235 17.2159 1.5535 35.4969C-0.5185 42.5519 -0.5175 56.5809 1.5545 63.6329C6.2345 79.5559 21.7725 100.052 42.3345 117.427C58.3675 130.976 80.7045 146.565 84.0845 146.565C86.5885 146.565 111.325 129.735 121.959 120.795C134.31 110.412 150.436 93.7329 155.848 85.7429C167.514 68.5209 171.216 52.7709 167.402 36.5869C161.921 13.3329 138.589 -3.3041 116.873 0.557896C104.759 2.7129 94.3545 9.0099 87.7815 18.1629L84.5355 22.6819L80.9965 18.3779C69.2185 4.0499 54.7805 -1.9511 38.1325 0.560897Z"
          fill="#5785FA"/>
</svg>
