<svg width="79" height="37" viewBox="0 0 79 37" fill="none" xmlns="http://www.w3.org/2000/svg">
    <g clip-path="url(#clip0_102_31)">
        <path fill-rule="evenodd" clip-rule="evenodd"
              d="M78.9679 6.52551H69.0753V23.2411H61.928V6.52551H59.5013L59.5182 6.60507C59.8262 7.85051 59.8917 13.6053 59.6342 16.1831C59.4548 17.9666 59.0075 19.4575 58.3639 20.4179C58.0959 20.815 57.5957 21.3386 57.2011 21.6382C56.8213 21.9235 56.1587 22.2592 55.6375 22.4289C54.9812 22.6418 53.8522 22.8512 52.757 22.9668C51.4614 23.104 51.244 23.1075 40.8006 23.1221L30.554 23.1365V0.785318H78.9679V6.52551ZM43.1999 5.77111C41.039 5.85404 39.7244 6.07076 38.8655 6.48584C37.6163 7.09611 36.9769 8.11408 36.7595 9.84698C36.7427 10.0166 36.7131 10.7713 36.7026 11.5295C36.6561 14.6488 36.922 15.887 37.8463 16.8077C38.5258 17.4899 39.5661 17.9088 41.0411 18.0928C41.9591 18.2121 42.3664 18.23 44.2993 18.2481C46.7852 18.2735 48.0386 18.2192 49.309 18.0388C50.6489 17.851 51.5669 17.4935 52.2801 16.8942C52.8225 16.4395 53.2339 15.5981 53.388 14.6306C53.4175 14.4538 53.4429 14.2769 53.4429 14.2406C53.4429 14.183 53.3099 14.1795 51.1364 14.1795H48.8257L48.7687 14.3852C48.6337 14.8473 48.4649 15.0278 48.028 15.1721C47.6166 15.3095 47.1692 15.3635 46.0888 15.4141C43.9976 15.5042 42.4529 15.3202 41.9042 14.9087C41.5033 14.6053 41.3703 14.2335 41.3408 13.3491L41.3302 12.9699L47.4098 12.9591C52.2232 12.9519 53.4998 12.941 53.523 12.9049C53.5631 12.8399 53.5589 11.0962 53.5146 10.5474C53.3859 8.89042 53.0609 7.89757 52.4278 7.23328C51.6639 6.42443 50.5181 5.99479 48.7139 5.83969C47.5448 5.7422 44.8374 5.70612 43.1999 5.77111ZM46.0719 8.51122C47.1755 8.56545 47.8255 8.68805 48.256 8.91912C48.6168 9.11052 48.7941 9.40658 48.8363 9.90122C48.851 10.042 48.8679 10.2405 48.8806 10.3416L48.8975 10.533H41.326L41.3535 10.2766C41.4252 9.59798 41.7101 9.11052 42.1722 8.87586C42.5373 8.68805 43.2991 8.55828 44.274 8.51481C45.1582 8.47155 45.3101 8.47155 46.0719 8.51122ZM14.9288 0.0271194C22.2793 0.121024 24.9508 0.406114 26.8318 1.2943C27.5791 1.64818 28.2797 2.20043 28.6297 2.71679C29.0341 3.31609 29.2797 4.07071 29.4422 5.2079C29.5179 5.73503 29.5034 7.98409 29.424 8.52198C29.2362 9.76764 28.9077 10.5041 28.2797 11.0855C27.9619 11.3777 27.5069 11.6198 26.8426 11.8435L26.3661 12.0059L26.8137 12.1577C27.6044 12.4212 28.0197 12.6523 28.4132 13.0494C28.933 13.5802 29.2436 14.3166 29.4204 15.443C29.4998 15.9556 29.5323 17.8367 29.4745 18.4649C29.359 19.6597 29.0883 20.5949 28.6658 21.2303C27.8933 22.3892 26.33 23.1508 23.9907 23.5119C22.0014 23.8189 6.36153 23.92 4.25322 23.4144C1.9571 22.8657 0.693512 21.6815 0.285397 19.6922C0.137472 18.9774 0.0471562 17.7463 0.0363941 16.3095L0.0292201 15.2806L3.59252 15.2696L7.15582 15.2624L7.17396 15.3781C7.18473 15.443 7.19908 15.7642 7.21005 16.0928C7.26407 17.7968 7.58905 18.2264 8.92122 18.3313C11.0188 18.4936 17.0985 18.4936 19.8675 18.3275C21.1313 18.2553 21.6981 18.0243 21.9904 17.472C22.1638 17.147 22.225 16.8582 22.225 16.3817C22.2288 15.2734 21.8279 14.7102 20.9254 14.5584C20.106 14.4213 18.0263 14.3599 14.1345 14.3599H11.4919L11.4991 12.0024L11.5098 9.64841L15.3909 9.62689C19.2467 9.60515 20.0264 9.58342 20.8243 9.4644C21.4272 9.37767 21.7811 9.16834 21.9904 8.7712C22.1674 8.43905 22.225 8.16113 22.225 7.64477C22.225 6.98047 22.1132 6.61583 21.8064 6.28368C21.6331 6.09587 21.4417 5.97686 21.1457 5.87578C20.6692 5.7097 20.1024 5.67003 17.1781 5.5833C14.0478 5.4894 9.04045 5.58689 8.36898 5.75296C7.92837 5.86122 7.61795 6.08152 7.45546 6.4065C7.30754 6.69897 7.19549 7.47511 7.19549 8.22972C7.19549 8.43905 7.18473 8.63762 7.17396 8.67012C7.15223 8.72055 6.80194 8.72794 3.57437 8.72794H0.000305176L0.0218272 7.66291C0.0724722 5.43896 0.206053 4.33406 0.520053 3.49293C0.758506 2.85754 1.05456 2.41356 1.56713 1.92251C2.38674 1.13899 3.42285 0.713149 5.35074 0.366442C6.49152 0.164283 7.7587 0.066791 9.83114 0.0307064C11.9684 -0.00896554 12.0984 -0.00896518 14.9288 0.0271194Z"
              fill="white"/>
        <path fill-rule="evenodd" clip-rule="evenodd"
              d="M4.74486 30.52L6.40597 33.9579L6.67678 33.9686L6.94757 33.9758L8.59433 30.5381L10.2373 27.0967L11.7612 27.0859C12.599 27.0823 13.2851 27.0931 13.2851 27.1076C13.2851 27.1292 9.43566 35.0953 8.91199 36.1534L8.82904 36.3231H4.5281L2.46996 32.1271C1.33588 29.8194 0.317695 27.7396 0.205617 27.5049L-0.000183105 27.0787H3.08375L4.74486 30.52ZM16.7156 36.3231H13.7545V27.0787H16.7156V36.3231ZM40.5122 29.4619H36.4681V36.3231H33.5072V29.4619H29.4266V27.0787H40.5122V29.4619ZM64.2849 27.1798C64.6522 27.2809 64.9645 27.4506 65.2199 27.6853C65.7033 28.1368 65.851 28.8012 65.8151 30.3575C65.8004 30.8993 65.7772 31.2604 65.7392 31.4227C65.5851 32.1197 65.2136 32.4882 64.4875 32.6723L64.2385 32.7337L64.4432 32.7734C65.1883 32.9141 65.5872 33.297 65.6822 33.9579C65.7012 34.0951 65.7181 34.6873 65.7181 35.265V36.3231H62.9742V35.8788C62.9742 34.875 62.8771 34.3695 62.6407 34.1744C62.4359 34.0011 62.4212 34.0011 59.7533 33.9868L57.2331 33.9722V36.3231H54.4153V27.0751L59.2108 27.0859C63.9915 27.1002 64.0021 27.1002 64.2849 27.1798ZM57.2331 31.672L59.806 31.6538C61.674 31.6431 62.4169 31.6251 62.5225 31.5926C62.6027 31.5673 62.7251 31.4877 62.8011 31.4084C62.9784 31.2241 63.0206 30.9968 63.0016 30.3864C62.9847 29.8412 62.9277 29.6715 62.6998 29.5307C62.5077 29.415 62.0307 29.3933 59.4282 29.3933L57.2331 29.3897V31.672ZM70.9716 28.9203C71.7884 29.9315 72.4596 30.7583 72.4702 30.7583C72.4828 30.7583 73.0928 29.9784 73.8252 29.025C74.5618 28.0718 75.2014 27.2412 75.252 27.1834L75.3407 27.0751L78.9668 27.0967L73.9561 33.0551L73.9518 34.6873V36.3231H71.0623V33.0551L70.0112 31.8634C69.4308 31.2062 68.2467 29.8629 67.375 28.8734L65.7898 27.0787H67.643L69.492 27.0823L70.9716 28.9203ZM25.7722 26.9704C26.6317 27.0137 27.0939 27.0823 27.5165 27.2231C27.9101 27.3531 28.1628 27.5085 28.3939 27.7685C28.7297 28.1404 28.8669 28.5881 28.9283 29.5161C28.95 29.852 28.9572 30.1913 28.9429 30.2637L28.9175 30.4009H26.1443L26.1262 30.2817C26.1154 30.2203 26.1008 30.0759 26.0901 29.964C26.0468 29.4115 25.8553 29.3464 24.1364 29.2778C22.9772 29.2346 21.4064 29.2778 21.0489 29.3646C20.5687 29.4836 20.3844 29.6968 20.269 30.2709C20.1968 30.6247 20.1643 32.1703 20.2147 32.7516C20.2654 33.3403 20.334 33.5497 20.5434 33.7593C20.8756 34.0915 21.2296 34.1312 23.6309 34.1094C25.5124 34.0951 25.6567 34.0805 25.9347 33.9108C26.1008 33.8061 26.2019 33.5678 26.249 33.1598C26.2669 32.9827 26.2851 32.8166 26.2851 32.7915C26.2851 32.759 26.592 32.748 27.6969 32.748H29.109L29.0908 33.586C29.0765 34.2901 29.0619 34.4777 28.9969 34.7306C28.7622 35.6515 28.2531 36.0738 27.1156 36.287C26.0069 36.4964 21.5979 36.5289 19.9729 36.3375C18.4707 36.1642 17.8062 35.7165 17.5498 34.6945C17.4054 34.1312 17.3873 33.7844 17.3873 31.7913C17.3837 29.7869 17.4126 29.2418 17.5462 28.7217C17.7448 27.9382 18.2685 27.4399 19.117 27.2267C19.6153 27.1002 20.7566 26.992 21.9698 26.9595C22.8761 26.9305 25.1584 26.9379 25.7722 26.9704ZM50.5337 27.0065C51.663 27.0787 52.216 27.2016 52.636 27.4724C52.8998 27.6456 53.1869 27.9525 53.3072 28.1837C53.628 28.8156 53.7504 30.0109 53.7188 32.1342C53.6892 33.8819 53.5922 34.6223 53.3178 35.1857C53.0898 35.6479 52.6571 35.9945 52.0893 36.1749C51.4076 36.3917 50.4936 36.446 47.4458 36.446C45.0333 36.446 44.0518 36.4135 43.33 36.305C42.2641 36.1462 41.6541 35.673 41.3839 34.7992C41.1918 34.1673 41.1095 32.9973 41.137 31.253C41.1559 29.9241 41.2087 29.2778 41.3438 28.747C41.5886 27.7828 42.2134 27.2664 43.3363 27.1002C43.6825 27.0462 44.7737 26.9776 45.5863 26.9559C46.439 26.9341 49.9301 26.9704 50.5337 27.0065ZM45.6327 29.3897C44.799 29.4296 44.5689 29.4872 44.3304 29.7112C44.0455 29.9748 43.98 30.2962 43.9547 31.5745C43.9209 33.2356 44.0202 33.5896 44.59 33.8422C44.8898 33.9794 45.3014 34.0119 46.9034 34.0372C48.4062 34.059 49.6557 34.0155 50.0103 33.929C50.5696 33.7918 50.8039 33.5064 50.8799 32.8673C50.939 32.4122 50.901 30.6392 50.8292 30.325C50.6963 29.7473 50.4282 29.509 49.8224 29.4258C49.4763 29.3754 46.4031 29.35 45.6327 29.3897Z"
              fill="#FFA400"/>
    </g>
    <defs>
        <clipPath id="clip0_102_31">
            <rect width="79" height="37" fill="white"/>
        </clipPath>
    </defs>
</svg>
