<svg width="131" height="147" viewBox="0 0 131 147" fill="none" xmlns="http://www.w3.org/2000/svg">
    <path fill-rule="evenodd" clip-rule="evenodd"
          d="M66.5 0.641471C65.4 1.12847 54.762 11.3585 42.859 23.3745C21.348 45.0905 21.205 45.2645 19.021 52.2225C17.402 57.3835 16.704 62.6375 16.366 72.2225C15.687 91.4595 15.901 90.8015 7.441 99.6565C3.348 103.939 0 107.84 0 108.324C0 108.807 8.413 117.624 18.695 127.917L37.39 146.631L50.072 134.266C57.047 127.465 64.066 121.222 65.668 120.393C67.271 119.565 72.143 118.391 76.494 117.786C81.22 117.129 85.905 115.787 88.13 114.454C90.178 113.226 100.662 103.549 111.427 92.9495C129.61 75.0465 131 73.4235 131 70.1045C131 65.6915 128.895 62.0505 124.3 58.5125L120.78 55.8025L115.738 61.3185C110.021 67.5735 104.236 71.8175 98.747 73.7825C95.653 74.8905 95.104 75.4865 95.623 77.1745C97.789 84.2135 100.212 85.9705 108 86.1445C112.315 86.2405 112.749 88.6395 108.696 89.9905C101.999 92.2225 93.736 87.1625 92.393 80.0055C91.938 77.5765 90.273 74.9695 87.386 72.1635C84.238 69.1045 82.89 66.8855 82.43 64.0075L81.797 60.0535L74.649 60.1375C70.717 60.1845 66.206 59.8625 64.626 59.4225L61.751 58.6215L64.336 63.0325C67.777 68.9045 72 81.6815 72 86.2225C72 89.1215 71.65 89.8015 70.294 89.5405C69.074 89.3055 68.219 87.3865 67.29 82.7985C65.698 74.9355 62.364 67.4855 57.039 59.8935C50.672 50.8165 51.574 50.0215 63.379 54.3085C71.378 57.2135 77.744 57.1695 81.041 54.1855C83.568 51.8985 83.691 45.6345 81.25 43.5075C76.533 39.3975 61.334 30.7225 58.85 30.7225C57.332 30.7225 51.099 32.5035 44.997 34.6795C35.635 38.0195 33.813 38.3985 33.319 37.1125C32.454 34.8565 33.513 34.2305 44.847 30.3055C56.875 26.1405 60.294 25.9195 66.454 28.9125L70.962 31.1025L74.731 28.1195C76.853 26.4405 79.718 22.6425 81.287 19.4295C84.093 13.6835 85.59 12.4915 86.623 15.1815C87.689 17.9615 84.954 23.3425 79.989 28.2335C77.245 30.9365 75 33.4635 75 33.8495C75 34.2355 77.261 35.9425 80.024 37.6425C84.646 40.4865 85.802 41.9575 87.415 47.0435C87.966 48.7835 88.115 48.7755 90.746 46.8815C92.261 45.7905 96.2 42.1625 99.5 38.8185C105.693 32.5435 108 31.3865 108 34.5525C108 36.5615 98.238 46.5625 90.75 52.2225C85.463 56.2205 84.788 58.8855 87.448 65.2525C90.847 73.3875 98.744 71.7595 110.625 60.4735C115.191 56.1365 118.52 53.7085 119.425 54.0555C120.418 54.4365 121.227 53.5645 121.97 51.3125C123.804 45.7555 120.614 40.1085 112.833 35.1425C110.062 33.3735 109.296 32.3085 109.696 30.7785C110.572 27.4265 109.263 24.3025 104.908 19.3555C99.442 13.1455 95.831 11.3365 90.39 12.0825C86.76 12.5805 86.026 12.3795 85.507 10.7455C85.172 9.68747 82.69 6.97447 79.993 4.71647C74.929 0.47747 70.14 -0.969529 66.5 0.641471Z"
          fill="#FFFFFF"/>
</svg>
