<svg width="20" height="28" viewBox="0 0 20 28" fill="none" xmlns="http://www.w3.org/2000/svg">
<path d="M13.6919 9.93806H14.0555C15.4153 9.93806 16.7751 9.93108 18.135 9.94222C18.5738 9.9464 18.9263 10.1066 18.9848 10.565C19.028 10.898 18.8483 11.107 18.6505 11.3062C18.2394 11.7214 17.8048 12.1129 17.391 12.5253C12.4212 17.4909 7.45291 22.4592 2.48458 27.4261C2.01924 27.8915 1.49119 27.8009 1.27245 27.1935C1.21811 27.0388 1.25712 26.8131 1.32957 26.6557C1.91056 25.378 2.50966 24.1088 3.10318 22.8382C3.94331 21.0423 4.78623 19.2478 5.62218 17.4505C6.07777 16.4752 6.52222 15.4943 6.98059 14.4968H1.22787C1.06207 14.4968 0.896273 14.4954 0.729083 14.494C0.44904 14.4926 0.245624 14.3783 0.102119 14.1261C-0.0483517 13.8642 -0.0274531 13.6357 0.131377 13.3877C0.986833 12.0669 1.83532 10.7433 2.6852 9.41835C4.1509 7.13342 5.61661 4.84574 7.0823 2.55942C7.53511 1.85443 7.99488 1.1522 8.43654 0.440249C8.62742 0.130947 8.87681 -0.00138237 9.24184 1.0881e-05C12.2847 0.00697713 15.3276 0.00556109 18.3704 0.00277459C18.7006 0.00277459 19.0322 0.0362262 19.1869 0.365033C19.3206 0.652043 19.2677 0.932069 19.0838 1.22744C17.7365 3.3828 16.4143 5.5521 15.0796 7.71582C14.6323 8.4417 14.1767 9.16341 13.6919 9.93806Z" fill="#A6A6A6"/>
</svg>
