<svg width="30" height="33" viewBox="0 0 30 33" fill="none" xmlns="http://www.w3.org/2000/svg">
<path d="M19.4175 2.90675C20.4902 2.40724 21.9413 2.56116 22.7504 3.49632C23.2515 4.07609 23.828 4.5969 24.2767 5.2127C24.6862 5.77118 24.7173 6.46396 24.5224 7.12725C24.4405 7.40895 24.5355 7.46296 24.7566 7.55958C25.8654 8.04764 26.7563 8.77155 27.2738 9.90652C27.6767 10.786 27.377 11.541 26.9185 12.2894C27.4327 12.7103 27.9601 13.1165 28.4596 13.5554C29.3833 14.3661 29.8435 16.1185 28.7511 17.0717C26.0095 19.4645 23.5578 22.1504 20.9341 24.6611C20.0071 25.5488 18.8951 26.1203 17.5652 26.2137C16.5924 26.2825 15.5901 26.2923 14.7188 26.8361C14.3732 27.0522 14.0195 27.275 13.7312 27.5583C12.1426 29.1224 10.572 30.7044 8.99644 32.28C8.587 32.6894 8.42159 32.6894 8.0056 32.2734C5.46543 29.7333 2.92363 27.1931 0.3851 24.6513C0.285197 24.553 0.218051 24.4236 0.119785 24.3221C-0.0718329 24.1239 -0.0161483 23.9732 0.164005 23.7963C0.912462 23.0626 1.64618 22.3126 2.39463 21.5772C3.02681 20.9549 3.56235 20.2637 3.65407 19.3564C3.71958 18.6964 3.6901 18.0265 3.68519 17.3616C3.68027 16.8555 3.6164 16.3478 3.63278 15.8434C3.6508 15.316 3.73923 14.792 3.78509 14.2646C3.93413 12.5433 4.36814 10.9138 5.37372 9.47744C5.5375 9.24651 5.72911 9.03029 5.93056 8.83049C8.61648 6.13801 11.3073 3.45049 13.9949 0.761292C14.5206 0.233933 15.1577 -0.0395822 15.8914 0.00463732C16.4532 0.0390303 16.9903 0.1979 17.4244 0.605702C17.9386 1.0872 18.4938 1.52774 18.977 2.03544C19.1915 2.26145 19.275 2.61359 19.4175 2.90675ZM21.2583 16.6033C21.7055 16.4608 22.1313 16.3724 22.5178 16.1972C24.149 15.4585 25.3429 14.186 26.5008 12.8725C26.5516 12.8152 26.5778 12.7382 26.6302 12.6842C26.8022 12.5057 26.848 12.3042 26.6515 12.1388C26.4582 11.9767 26.2371 11.9603 26.0341 12.1732C25.3642 12.8774 24.7124 13.6013 24.0049 14.2679C23.376 14.8607 22.6668 15.3504 21.8185 15.6125C20.7441 15.945 19.8744 15.6403 19.4634 14.6478C19.2537 14.1434 19.18 13.5636 19.1456 13.0117C19.1227 12.6334 19.2161 12.2731 19.6435 12.0061C21.1437 11.0677 22.4326 9.86886 23.6413 8.58159C23.8002 8.4129 23.9443 8.22944 24.0786 8.0411C24.2227 7.83638 24.2178 7.62675 24 7.47772C23.7936 7.33359 23.6151 7.37127 23.4415 7.57763C23.1238 7.95759 22.7995 8.33261 22.4441 8.6749C21.8643 9.23174 21.2682 9.77221 20.6589 10.2996C20.3183 10.5944 19.94 10.845 19.5125 11.1643C19.6124 9.90816 19.0687 9.12694 18.0795 8.57829C17.5341 8.27694 17.0297 7.90028 16.5825 7.60712C17.2147 7.00442 17.8665 6.46067 18.425 5.83341C18.972 5.21761 19.3569 4.49044 19.3651 3.62242C19.3684 3.39805 19.3848 3.21627 19.0572 3.21463C18.746 3.21136 18.6363 3.33909 18.5692 3.62242C18.4807 4.00075 18.3808 4.38727 18.2105 4.73284C17.7552 5.65981 16.9854 6.28708 16.1256 6.83082C15.8439 7.0077 15.6458 7.03226 15.369 6.83737C14.6762 6.34768 13.9376 5.89564 13.0548 5.99555C12.4587 6.06106 11.8707 6.25921 11.2975 6.45247C10.1118 6.85372 8.94076 7.29755 7.75829 7.70863C7.47824 7.80525 7.40945 8.00342 7.50608 8.21633C7.59124 8.40467 7.74683 8.56684 8.03672 8.46038C9.46157 7.9363 10.8962 7.44006 12.3211 6.91434C13.1105 6.62118 13.8213 6.78494 14.4993 7.21567C15.6245 7.92973 16.7398 8.66182 17.8747 9.36278C18.5741 9.79515 18.8246 10.4109 18.7329 11.1971C18.6592 11.8325 18.2596 12.224 17.7077 12.4647C16.9134 12.8119 16.0732 12.7579 15.2789 12.54C14.3536 12.2878 13.4626 11.9013 12.5602 11.5656C12.3424 11.4853 12.1475 11.4231 11.987 11.6704C11.833 11.9062 11.9772 12.0471 12.1082 12.2289C12.6781 13.015 13.2923 13.7798 13.7787 14.6167C14.6582 16.1251 15.1757 17.7694 15.3526 19.5153C15.3755 19.7396 15.4541 19.9312 15.7604 19.9149C16.0486 19.8985 16.1551 19.7593 16.1354 19.494C16.1141 19.2123 16.106 18.9257 16.0519 18.6489C15.7407 17.0865 15.2674 15.5797 14.4682 14.1892C14.2422 13.7978 14.0047 13.4113 13.7247 12.9396C15.2887 13.4277 16.784 13.7667 18.3055 13.1133C18.3497 13.3638 18.389 13.5636 18.4185 13.7667C18.5823 14.9131 19.0097 15.8761 20.1529 16.3773C20.2872 16.4346 20.4149 16.6066 20.4575 16.7523C20.582 17.1765 20.6196 17.6302 20.767 18.0429C21.4074 19.828 22.8978 20.4111 24.5617 19.9018C24.7992 19.8297 24.9384 19.6512 24.8565 19.4039C24.773 19.1566 24.5912 19.1075 24.3128 19.155C23.8755 19.2287 23.4087 19.2975 22.9813 19.2205C21.8643 19.0239 21.2502 17.6547 21.2583 16.6033Z" fill="#ACACAC"/>
</svg>
