<svg width="30" height="26" viewBox="0 0 30 26" fill="none" xmlns="http://www.w3.org/2000/svg">
<path d="M0 9.51203V7.6356C0.0379075 7.40436 0.066968 7.17064 0.117511 6.94319C0.357592 5.85652 0.710133 4.81404 1.29896 3.85752C2.12029 2.51939 3.20065 1.45671 4.60829 0.761738C5.89588 0.127422 7.25928 -0.107585 8.69977 0.0617345C9.59944 0.166611 10.446 0.407965 11.2434 0.814837C12.3755 1.39482 13.3359 2.18455 14.0662 3.23838C14.2216 3.46203 14.3897 3.67683 14.559 3.9068C15.0973 3.02608 15.7417 2.29447 16.515 1.66774C17.7129 0.696045 19.0801 0.141332 20.6103 0.0225562C21.5517 -0.0519948 22.4867 0.0591883 23.3952 0.342229C25.0429 0.857769 26.3647 1.84084 27.3818 3.21308C28.1311 4.22521 28.6416 5.36242 28.8943 6.60578C28.9638 6.94947 29.0434 7.29191 29.1193 7.6356V9.39831C29.0814 9.47666 29.027 9.55121 29.0081 9.63334C28.8817 10.1792 28.8034 10.7402 28.6303 11.2709C28.3371 12.1706 27.9075 13.0109 27.4223 13.8284C26.6565 15.116 25.7354 16.2823 24.7018 17.3513C23.7339 18.352 22.6927 19.282 21.6679 20.2259C21.2017 20.6543 20.7114 21.0586 20.2097 21.444C19.4491 22.0265 18.6821 22.6052 17.8923 23.1473C16.9295 23.8056 15.9527 24.445 14.952 25.0439C14.7435 25.1677 14.3606 25.1715 14.1382 25.0641C13.6025 24.8076 13.1059 24.4665 12.6093 24.1354C11.0753 23.1119 9.55269 22.0707 8.14885 20.8703C7.31109 20.1551 6.45438 19.4576 5.65327 18.7033C4.99494 18.0854 4.37073 17.4233 3.79327 16.7283C3.0882 15.8817 2.4046 15.0086 1.79176 14.095C1.05762 13.002 0.513012 11.8079 0.223652 10.5115C0.150364 10.1792 0.0745514 9.84561 0 9.51203Z" fill="#999999"/>
<path d="M23.0259 7.77246H17.2139V25.7724H23.0259V7.77246Z" fill="#FFBF22"/>
<path d="M11.1179 13.8609V19.6729H29.1179V13.8609H11.1179Z" fill="#FFBF22"/>
</svg>
