<svg width="30" height="29" viewBox="0 0 30 29" fill="none" xmlns="http://www.w3.org/2000/svg">
<path d="M14.6664 3.07306e-05C15.0078 0.00421046 15.3366 0.203426 15.5469 0.633938C16.7967 3.18079 18.059 5.72068 19.3059 8.26892C19.4035 8.46955 19.5484 8.54619 19.7309 8.57127C20.8552 8.72732 21.981 8.86663 23.1053 9.02545C24.2576 9.18707 25.4084 9.36401 26.5606 9.53538C27.136 9.62037 27.7142 9.69003 28.2854 9.79453C28.6811 9.86698 28.9542 10.1275 29.0726 10.5065C29.1966 10.9007 29.0643 11.2672 28.7828 11.5431C27.7128 12.5908 26.6233 13.619 25.5477 14.6611C25.0113 15.1808 24.493 15.7172 23.9594 16.2397C23.5205 16.6702 23.0803 17.1021 22.6205 17.5103C22.438 17.6719 22.4213 17.8558 22.4533 18.0509C22.6372 19.1418 22.8309 20.2313 23.0245 21.3208C23.207 22.3504 23.4035 23.3786 23.5763 24.4096C23.7044 25.1787 23.8452 25.9478 23.9078 26.7224C23.9608 27.3884 23.2363 27.8997 22.6149 27.6434C22.0381 27.4065 21.4892 27.0958 20.9319 26.8088C20.1823 26.4229 19.4369 26.0286 18.6887 25.6357C17.386 24.953 16.082 24.2731 14.7848 23.5821C14.6065 23.4873 14.4741 23.4915 14.3 23.5835C12.7117 24.4278 11.1206 25.2665 9.5281 26.1038C8.59044 26.597 7.65139 27.0874 6.70816 27.5723C6.33338 27.7659 5.94744 27.7938 5.59913 27.5152C5.23549 27.2226 5.11567 26.8617 5.21877 26.3783C5.39014 25.5772 5.48627 24.7607 5.62281 23.9526C5.76074 23.146 5.91122 22.3407 6.05194 21.5354C6.16758 20.8708 6.28182 20.2062 6.3905 19.5403C6.48106 18.976 6.56605 18.4117 6.64268 17.8447C6.65243 17.7736 6.61899 17.6719 6.56883 17.6217C5.2745 16.3427 3.9746 15.0679 2.67609 13.7931C1.87079 13.0032 1.05991 12.2201 0.260188 11.426C0.035874 11.2045 -0.0532908 10.93 0.0316975 10.604C0.141764 10.186 0.380009 9.87254 0.807738 9.79869C1.70917 9.64544 2.61757 9.53957 3.52179 9.40442C4.60853 9.24141 5.69387 9.05889 6.782 8.89866C7.60541 8.77885 8.43161 8.67991 9.25781 8.57263C9.53507 8.53641 9.73291 8.45144 9.87641 8.15468C11.1094 5.62176 12.3675 3.09998 13.6145 0.574029C13.8068 0.183921 14.1119 -0.00275576 14.6664 3.07306e-05Z" fill="#999999"/>
<path d="M23.8943 10.4062H18.0823V28.4062H23.8943V10.4062Z" fill="#FFBF22"/>
<path d="M11.9863 16.4942V22.3062H29.9863V16.4942H11.9863Z" fill="#FFBF22"/>
</svg>
