<svg width="30" height="28" viewBox="0 0 30 28" fill="none" xmlns="http://www.w3.org/2000/svg">
    <path d="M14.6664 3.07308e-05C15.0077 0.00421048 15.3365 0.203427 15.5469 0.633941C16.7967 3.1808 18.059 5.72071 19.3059 8.26897C19.4034 8.46959 19.5483 8.54624 19.7309 8.57132C20.8552 8.72736 21.981 8.86667 23.1053 9.0255C24.2575 9.18712 25.4084 9.36406 26.5606 9.53543C27.136 9.62041 27.7142 9.69008 28.2854 9.79458C28.6811 9.86703 28.9542 10.1275 29.0726 10.5065C29.1966 10.9008 29.0642 11.2672 28.7828 11.5431C27.7128 12.5908 26.6233 13.619 25.5477 14.6612C25.0113 15.1809 24.493 15.7173 23.9594 16.2398C23.5205 16.6703 23.0802 17.1022 22.6205 17.5104C22.4379 17.672 22.4212 17.8559 22.4533 18.051C22.6372 19.1419 22.8308 20.2314 23.0245 21.3209C23.207 22.3505 23.4035 23.3788 23.5762 24.4098C23.7044 25.1788 23.8451 25.9479 23.9078 26.7226C23.9608 27.3885 23.2363 27.8999 22.6149 27.6435C22.0381 27.4067 21.4891 27.096 20.9318 26.809C20.1823 26.423 19.4369 26.0287 18.6887 25.6358C17.386 24.9531 16.0819 24.2732 14.7848 23.5822C14.6065 23.4874 14.4741 23.4916 14.3 23.5836C12.7117 24.4279 11.1206 25.2666 9.52809 26.104C8.59043 26.5972 7.65138 27.0876 6.70815 27.5724C6.33337 27.7661 5.94743 27.794 5.59912 27.5153C5.23548 27.2227 5.11567 26.8619 5.21877 26.3784C5.39014 25.5773 5.48627 24.7609 5.62281 23.9528C5.76074 23.1461 5.91121 22.3408 6.05193 21.5355C6.16757 20.8709 6.28182 20.2063 6.39049 19.5404C6.48105 18.9761 6.56604 18.4118 6.64267 17.8448C6.65242 17.7737 6.61898 17.672 6.56882 17.6218C5.27449 16.3428 3.97459 15.068 2.67608 13.7932C1.87079 13.0032 1.05991 12.2202 0.260187 11.4261C0.035874 11.2045 -0.0532907 10.9301 0.0316975 10.604C0.141764 10.1861 0.380009 9.87259 0.807737 9.79874C1.70917 9.64549 2.61757 9.53961 3.52179 9.40447C4.60852 9.24146 5.69386 9.05893 6.78199 8.89871C7.6054 8.77889 8.4316 8.67996 9.2578 8.57268C9.53505 8.53645 9.73289 8.45148 9.8764 8.15472C11.1094 5.62179 12.3675 3.09999 13.6145 0.574032C13.8068 0.183922 14.1119 -0.00275577 14.6664 3.07308e-05Z"
          fill="#999999"/>
</svg>
