<svg width="30" height="30" viewBox="0 0 30 30" fill="none" xmlns="http://www.w3.org/2000/svg">
    <path fill-rule="evenodd" clip-rule="evenodd"
          d="M0 18.256V16.0948C0.0194086 16.0668 0.0496813 16.0417 0.054248 16.0114C0.134737 15.5017 0.188978 14.9851 0.294584 14.4804C0.485816 13.5437 0.818025 12.6509 1.25129 11.7992C1.63775 11.0412 2.09445 10.3282 2.63446 9.66543C3.24355 8.91877 3.91942 8.25603 4.68035 7.67206C5.46811 7.06754 6.3198 6.58918 7.22858 6.19359C8.36855 5.69754 9.55703 5.38129 10.7906 5.30251C11.6058 5.25114 12.4301 5.31279 13.2498 5.34932C14.2522 5.39328 15.2021 5.68611 16.1474 5.99779C17.1835 6.34029 18.0951 6.05944 18.8857 5.36131C19.3361 4.96458 19.8122 4.93832 20.2323 5.3596C21.406 6.53039 22.5796 7.70402 23.7521 8.87652C24.1734 9.29951 24.1632 9.73564 23.7607 10.1701C23.2749 10.6941 23.0158 11.3203 22.9747 12.0407C22.941 12.6452 23.2384 13.1675 23.3628 13.7326C23.5369 14.5318 23.7618 15.3333 23.8104 16.1427C23.872 17.1965 23.8749 18.2577 23.6717 19.3143C23.4799 20.3127 23.1916 21.2711 22.7715 22.1919C21.9734 23.9335 20.8043 25.3823 19.303 26.5674C18.3383 27.3289 17.292 27.9493 16.1326 28.3455C15.3893 28.6007 14.6107 28.7582 13.8452 28.946C13.5381 29.022 13.2218 29.0631 12.9102 29.1184H10.8626C10.8346 29.1007 10.8066 29.0671 10.7792 29.0659C9.92465 29.0351 9.10323 28.8227 8.2972 28.5681C7.14638 28.2051 6.08234 27.6651 5.08907 26.9744C4.19742 26.3556 3.40738 25.6323 2.7178 24.804C1.92319 23.8467 1.29983 22.7787 0.83574 21.6222C0.482961 20.7425 0.231192 19.8383 0.115882 18.8959C0.0907655 18.6807 0.0393881 18.4683 0 18.256ZM3.38683 17.1805C3.41594 17.5259 3.44105 17.8712 3.47188 18.2166C3.54323 19.0391 3.7864 19.8178 4.11578 20.5684C4.72886 21.9607 5.66106 23.1047 6.87295 24.0208C8.14935 24.9856 9.59642 25.533 11.1771 25.6968C12.0448 25.7876 12.9262 25.7231 13.7733 25.5227C15.5766 25.0969 17.1161 24.1835 18.3411 22.7918C18.7464 22.3323 19.0878 21.7992 19.3835 21.2591C19.6073 20.8499 19.4331 20.2904 18.884 20.1312C18.0546 19.888 17.2023 19.6979 16.402 19.3788C15.3334 18.9558 14.287 18.4643 13.2629 17.9403C12.2543 17.4237 11.2958 16.8135 10.2992 16.2717C8.58377 15.3378 6.77647 14.6357 4.86072 14.227C4.28703 14.1043 3.85775 14.3235 3.70305 14.8989C3.49926 15.6438 3.36913 16.4007 3.38683 17.1805ZM8.53123 10.9167C8.4359 12.0858 9.62726 13.2668 10.8066 13.2012C12.1053 13.1281 13.0814 12.1942 13.0591 10.9138C13.0346 9.51472 12.0642 8.66132 10.7044 8.65561C9.48397 8.65104 8.477 9.74134 8.53123 10.9167ZM29.1192 5.97153C29.0227 6.16904 28.9377 6.37226 28.8281 6.56235C28.344 7.40148 27.5973 7.81819 26.6446 7.77709C26.1103 7.75369 25.6228 7.50936 25.2306 7.1172C24.174 6.05772 23.1099 5.00682 22.0607 3.94163C21.3963 3.26976 21.1388 2.46203 21.4534 1.55325C21.7331 0.740952 22.3125 0.214062 23.179 0.0439521C23.1893 0.0428105 23.1967 0.0148418 23.2053 0H23.9445C24.3441 0.200935 24.8179 0.321945 25.1296 0.616497C26.2873 1.70394 27.3907 2.8479 28.5118 3.97245C28.5706 4.03068 28.6277 4.09633 28.6643 4.16997C28.8207 4.48279 28.9685 4.80189 29.1192 5.11813V5.97153Z"
          fill="#999999"/>
    <path d="M21.6773 11.1152H15.8652V29.1152H21.6773V11.1152Z" fill="#FFBF22"/>
    <path d="M9.76929 17.2027V23.0146H27.7693V17.2027H9.76929Z" fill="#FFBF22"/>
</svg>
