<svg width="30" height="30" viewBox="0 0 30 30" fill="none" xmlns="http://www.w3.org/2000/svg">
<path fill-rule="evenodd" clip-rule="evenodd" d="M0 18.256V16.0948C0.0194086 16.0669 0.0496812 16.0418 0.0542479 16.0115C0.134736 15.5017 0.188978 14.9851 0.294583 14.4805C0.485815 13.5438 0.818023 12.651 1.25129 11.7993C1.63775 11.0412 2.09444 10.3282 2.63446 9.66547C3.24354 8.91881 3.91941 8.25606 4.68034 7.67209C5.4681 7.06757 6.31978 6.58921 7.22856 6.19362C8.36853 5.69756 9.55701 5.38131 10.7906 5.30253C11.6058 5.25116 12.43 5.31281 13.2498 5.34934C14.2522 5.3933 15.2021 5.68613 16.1474 5.99781C17.1835 6.34031 18.0951 6.05947 18.8857 5.36133C19.3361 4.96459 19.8121 4.93834 20.2323 5.35962C21.4059 6.53041 22.5796 7.70405 23.7521 8.87656C24.1734 9.29955 24.1631 9.73568 23.7607 10.1701C23.2749 10.6941 23.0157 11.3203 22.9746 12.0407C22.9409 12.6452 23.2383 13.1676 23.3628 13.7327C23.5369 14.5319 23.7618 15.3333 23.8103 16.1428C23.872 17.1966 23.8748 18.2577 23.6716 19.3144C23.4798 20.3128 23.1915 21.2712 22.7714 22.192C21.9734 23.9336 20.8043 25.3824 19.303 26.5675C18.3382 27.329 17.2919 27.9495 16.1325 28.3456C15.3893 28.6008 14.6107 28.7583 13.8452 28.9461C13.5381 29.0221 13.2218 29.0632 12.9101 29.1185H10.8625C10.8346 29.1008 10.8066 29.0672 10.7792 29.066C9.92462 29.0352 9.1032 28.8228 8.29718 28.5683C7.14637 28.2052 6.08232 27.6652 5.08906 26.9745C4.19741 26.3557 3.40737 25.6324 2.7178 24.8041C1.92319 23.8468 1.29983 22.7788 0.835738 21.6223C0.482959 20.7426 0.231192 19.8384 0.115882 18.8959C0.0907652 18.6807 0.039388 18.4684 0 18.256ZM3.38682 17.1806C3.41593 17.5259 3.44104 17.8713 3.47187 18.2166C3.54322 19.0392 3.78639 19.8179 4.11577 20.5685C4.72885 21.9608 5.66104 23.1047 6.87294 24.0209C8.14933 24.9857 9.5964 25.5331 11.1771 25.6969C12.0447 25.7877 12.9261 25.7232 13.7733 25.5228C15.5765 25.097 17.1161 24.1836 18.3411 22.7919C18.7464 22.3324 19.0877 21.7992 19.3834 21.2592C19.6072 20.8499 19.4331 20.2905 18.884 20.1312C18.0545 19.8881 17.2023 19.698 16.402 19.3789C15.3334 18.9559 14.287 18.4644 13.2629 17.9404C12.2542 17.4238 11.2958 16.8135 10.2991 16.2718C8.58375 15.3379 6.77645 14.6358 4.86071 14.227C4.28702 14.1043 3.85774 14.3235 3.70304 14.8989C3.49925 15.6439 3.36912 16.4008 3.38682 17.1806ZM8.53121 10.9167C8.43588 12.0858 9.62723 13.2669 10.8066 13.2012C12.1053 13.1282 13.0814 12.1943 13.0591 10.9139C13.0346 9.51475 12.0641 8.66135 10.7044 8.65564C9.48394 8.65108 8.47698 9.74138 8.53121 10.9167ZM29.1191 5.97156C29.0227 6.16907 28.9376 6.37229 28.828 6.56238C28.3439 7.40151 27.5973 7.81822 26.6445 7.77712C26.1102 7.75372 25.6227 7.50939 25.2306 7.11723C24.174 6.05775 23.1099 5.00684 22.0607 3.94165C21.3962 3.26977 21.1388 2.46204 21.4533 1.55326C21.733 0.740955 22.3124 0.214063 23.179 0.0439523C23.1893 0.0428106 23.1967 0.0148418 23.2052 0H23.9445C24.3441 0.200936 24.8179 0.321946 25.1295 0.6165C26.2872 1.70395 27.3906 2.84791 28.5118 3.97247C28.5706 4.03069 28.6277 4.09634 28.6642 4.16998C28.8206 4.4828 28.9684 4.80191 29.1191 5.11815V5.97156Z" fill="#999999"/>
</svg>
