<svg width="30" height="26" viewBox="0 0 30 26" fill="none" xmlns="http://www.w3.org/2000/svg">
<path d="M0 9.51205V7.63562C0.0379074 7.40438 0.0669678 7.17065 0.117511 6.94321C0.357591 5.85653 0.710132 4.81406 1.29896 3.85753C2.12029 2.5194 3.20065 1.45671 4.60828 0.76174C5.89586 0.127423 7.25926 -0.107585 8.69975 0.0617347C9.59941 0.166612 10.446 0.407966 11.2433 0.814839C12.3755 1.39482 13.3358 2.18456 14.0662 3.23838C14.2216 3.46204 14.3896 3.67684 14.559 3.90681C15.0973 3.02609 15.7417 2.29448 16.515 1.66774C17.7129 0.696047 19.0801 0.141333 20.6103 0.0225563C21.5516 -0.0519949 22.4867 0.0591884 23.3952 0.34223C25.0429 0.857771 26.3646 1.84084 27.3818 3.21309C28.1311 4.22522 28.6416 5.36243 28.8943 6.6058C28.9638 6.94949 29.0434 7.29192 29.1192 7.63562V9.39834C29.0813 9.47668 29.027 9.55124 29.008 9.63337C28.8816 10.1792 28.8033 10.7403 28.6302 11.271C28.337 12.1706 27.9074 13.0109 27.4222 13.8284C26.6565 15.116 25.7353 16.2823 24.7017 17.3513C23.7338 18.3521 22.6926 19.2821 21.6679 20.226C21.2016 20.6543 20.7113 21.0586 20.2097 21.444C19.449 22.0265 18.682 22.6053 17.8923 23.1473C16.9294 23.8057 15.9527 24.445 14.9519 25.044C14.7435 25.1678 14.3606 25.1716 14.1382 25.0642C13.6024 24.8077 13.1059 24.4665 12.6093 24.1355C11.0753 23.112 9.55267 22.0708 8.14883 20.8704C7.31108 20.1552 6.45437 19.4577 5.65326 18.7033C4.99493 18.0854 4.37072 17.4233 3.79327 16.7284C3.08819 15.8818 2.40459 15.0086 1.79176 14.095C1.05762 13.002 0.513011 11.808 0.223651 10.5115C0.150364 10.1792 0.0745512 9.84564 0 9.51205Z" fill="#999999"/>
</svg>
