<svg width="28" height="33" viewBox="0 0 28 33" fill="none" xmlns="http://www.w3.org/2000/svg">
<path d="M13.6412 32.5865H13.5774C11.9871 31.6791 10.4131 30.7423 8.98661 29.5844C8.19883 28.9456 7.41105 28.302 6.67076 27.6075C6.05659 27.031 5.48499 26.4021 4.94452 25.7552C4.28449 24.9641 3.64738 24.1501 3.0545 23.31C2.2962 22.2356 1.68857 21.0744 1.18249 19.8575C0.46186 18.1214 0.00982855 16.3329 0.00819075 14.4445C0.00655295 11.0936 0.0032756 7.74429 0 4.39498V4.02812C1.33317 3.62686 2.6254 3.23869 3.91762 2.84725C6.91316 1.93827 9.90869 1.03256 12.9009 0.113753C13.3726 -0.0303736 13.8214 -0.0418078 14.2964 0.103956C16.7743 0.867171 19.2556 1.61399 21.7352 2.36738C23.5761 2.92587 25.4154 3.486 27.2661 4.04776C27.271 4.08543 27.2825 4.12637 27.2808 4.16732C27.2186 7.9146 27.4184 11.6635 27.1678 15.4059C27.1302 15.9447 27.0941 16.4918 26.9697 17.0142C26.6093 18.5226 26.0902 19.9705 25.3663 21.3544C24.3459 23.2985 23.0406 25.0296 21.5436 26.6166C20.9065 27.2914 20.2203 27.9252 19.5095 28.5214C18.6185 29.2682 17.7063 30.0004 16.7498 30.6588C15.7474 31.3499 14.6796 31.9477 13.6412 32.5865ZM13.6265 2.08898C13.5856 2.08734 13.5626 2.07912 13.543 2.08403C11.3942 2.73751 9.24866 3.39431 7.09822 4.04451C5.52266 4.52275 3.94218 4.98953 2.36498 5.46449C2.21431 5.51035 2.06199 5.52345 2.06035 5.77403C2.05871 8.73517 2.02923 11.6979 2.03579 14.6607C2.03579 15.229 2.08329 15.817 2.23396 16.3607C2.53368 17.4433 2.84322 18.5341 3.2887 19.561C4.1551 21.5591 5.4244 23.3116 6.89842 24.9068C7.47984 25.5357 8.10056 26.1368 8.75241 26.692C9.64501 27.4536 10.5704 28.1824 11.5137 28.8817C12.177 29.3731 12.8928 29.794 13.6265 30.2722V2.08898Z" fill="#A6A6A6"/>
</svg>
